<svg width="200" height="50" viewBox="0 0 200 50" xmlns="http://www.w3.org/2000/svg">
  <!-- Orbit Icon -->
  <g transform="translate(-5, -2) scale(0.14)">
    <circle fill="#ff4757" cx="256" cy="256" r="135.836"/>
    <circle fill="#ff4757" cx="428.83" cy="79.365" r="37.004"/>
    <path fill="#c23616" d="M328.06,298.384c-14.534,24.659-41.365,41.205-72.062,41.205c-46.165,0-83.589-37.423-83.589-83.589s37.423-83.589,83.589-83.589s83.589,37.423,83.589,83.589c0,5.237-0.482,10.362-1.403,15.333"/>
    <g style="opacity:0.2;">
      <path fill="#ffffff" d="M146.278,256c0-70.613,53.884-128.633,122.776-135.204c-4.296-0.41-8.65-0.627-13.054-0.627c-75.017,0-135.831,60.814-135.831,135.831S180.983,391.832,256,391.832c4.404,0,8.758-0.218,13.054-0.627C200.162,384.634,146.278,326.613,146.278,256z"/>
    </g>
    <g style="opacity:0.2;">
      <path fill="#ffffff" d="M417.939,79.368c0-15.839,9.955-29.347,23.948-34.625c-4.06-1.532-8.458-2.377-13.054-2.377c-20.434,0-37.001,16.566-37.001,37.001c0,20.436,16.567,37.002,37.001,37.002c4.597,0,8.995-0.844,13.054-2.376C427.895,108.715,417.939,95.207,417.939,79.368z"/>
    </g>
    <g style="opacity:0.2;">
      <path fill="#ffffff" d="M198.52,256c0-41.723,30.57-76.299,70.534-82.568c-4.254-0.667-8.612-1.021-13.054-1.021c-46.165,0-83.589,37.423-83.589,83.589s37.423,83.589,83.589,83.589c4.438,0,8.792-0.357,13.045-1.023C229.086,332.293,198.52,297.72,198.52,256z"/>
    </g>
    <path fill="#ffffff" d="M256,164.327c-50.549,0-91.673,41.124-91.673,91.673s41.124,91.673,91.673,91.673c32.316,0,62.598-17.314,79.025-45.184c2.268-3.846,0.987-8.802-2.859-11.069c-3.845-2.267-8.801-0.988-11.069,2.86c-13.534,22.961-38.478,37.225-65.097,37.225c-41.633,0-75.504-33.871-75.504-75.504s33.872-75.504,75.504-75.504s75.504,33.871,75.504,75.504c0,4.657-0.427,9.319-1.268,13.86c-0.814,4.39,2.086,8.608,6.476,9.422c4.379,0.807,8.607-2.085,9.421-6.476c1.021-5.509,1.539-11.164,1.539-16.805C347.673,205.451,306.548,164.327,256,164.327z"/>
  </g>
  
  <!-- EnSync Text -->
  <text x="70" y="33" font-family="Arial, sans-serif" font-size="28" font-weight="700" fill="#ffffff">EnSync</text>
</svg>
